<?xml version="1.0" standalone="no"?>
<!DOCTYPE svg PUBLIC "-//W3C//DTD SVG 20010904//EN"
 "http://www.w3.org/TR/2001/REC-SVG-20010904/DTD/svg10.dtd">
<svg version="1.0" xmlns="http://www.w3.org/2000/svg"
 width="300.000000pt" height="320.000000pt" viewBox="0 0 300.000000 320.000000"
 preserveAspectRatio="xMidYMid meet">
<metadata>
Created by potrace 1.10, written by Peter Selinger 2001-2011
</metadata>
<g transform="translate(0.000000,320.000000) scale(0.100000,-0.100000)"
fill="#000000" stroke="none">
<path d="M1150 2375 l-225 -225 -45 6 c-32 4 -62 0 -104 -14 -54 -18 -61 -19
-95 -4 -53 22 -138 20 -188 -7 -44 -22 -84 -71 -103 -126 -8 -23 -21 -34 -52
-45 -56 -20 -61 -38 -62 -250 -1 -154 2 -186 23 -265 30 -114 39 -134 66 -141
13 -3 26 -19 34 -40 28 -78 116 -143 191 -144 36 0 69 14 58 25 -3 3 -29 8
-57 10 -81 7 -121 34 -152 101 -10 23 -29 51 -42 61 -32 25 -42 45 -68 143
-19 71 -22 111 -22 245 0 178 5 198 62 237 19 13 46 44 60 69 39 69 43 74 83
92 44 21 102 22 156 3 44 -16 50 -16 103 2 20 7 66 14 103 16 74 3 67 -2 225
157 31 30 106 104 168 163 l112 108 75 -71 c66 -63 106 -87 106 -64 0 9 -172
183 -180 183 -3 0 -106 -101 -230 -225z"/>
<path d="M1823 2575 c-116 -32 -235 -119 -290 -212 -23 -40 -43 -49 -43 -19 0
14 -71 76 -99 87 -20 8 -52 -11 -116 -71 -27 -26 -62 -58 -76 -71 -15 -13 -98
-92 -185 -175 -88 -83 -184 -174 -216 -203 -85 -78 -88 -88 -104 -354 -8 -127
-16 -232 -18 -234 -2 -2 -32 35 -67 81 -35 47 -67 85 -71 86 -4 0 26 -53 66
-117 l73 -118 -13 -185 c-12 -167 -12 -186 3 -202 15 -17 56 -18 672 -18 l656
0 70 67 c39 38 90 91 113 120 l43 52 -25 16 c-19 13 -38 16 -78 11 -66 -7 -73
-7 -129 0 -42 5 -50 3 -82 -25 -19 -17 -38 -42 -41 -56 -4 -14 -13 -25 -20
-25 -20 0 -76 -49 -76 -66 0 -12 -44 -14 -265 -14 l-265 0 0 285 0 285 -160 0
-160 0 0 -285 0 -285 -90 0 -90 0 -2 383 c-2 210 -1 410 0 444 l4 62 320 302
320 302 59 -59 60 -60 -16 -43 c-8 -24 -15 -54 -15 -67 l0 -24 -140 0 -140 0
0 -170 0 -170 182 0 181 0 33 -38 c42 -49 98 -87 171 -118 l58 -24 -217 0
-218 0 0 -230 c0 -147 -4 -230 -10 -230 -5 0 -10 -9 -10 -20 0 -20 7 -20 285
-20 278 0 285 0 285 20 0 11 -4 20 -10 20 -6 0 -10 82 -10 225 l0 225 54 0
c58 0 169 30 201 54 27 21 32 20 51 -10 17 -25 16 -26 -15 -54 -27 -26 -30
-33 -21 -51 19 -35 461 -603 476 -612 20 -12 204 131 203 158 0 26 -459 619
-482 623 -9 2 -30 -6 -46 -17 l-28 -20 -23 24 -24 25 36 38 c86 90 123 199
116 343 -4 85 -9 106 -40 171 -19 40 -55 96 -80 123 -114 125 -306 183 -465
140z m279 -58 c79 -35 120 -65 167 -122 55 -67 106 -175 82 -175 -6 0 -11 5
-11 11 0 6 -11 33 -25 60 -63 126 -166 208 -295 234 -8 2 -17 4 -20 5 -14 4
-126 0 -152 -5 -74 -17 -144 -58 -208 -124 -55 -56 -70 -79 -94 -144 -25 -69
-28 -88 -24 -165 3 -72 10 -99 37 -154 102 -214 357 -305 562 -202 88 44 195
162 216 239 20 74 24 110 18 168 -4 44 -2 67 5 67 17 0 12 -179 -6 -236 -9
-27 -42 -86 -72 -132 l-55 -83 31 -45 c38 -53 27 -57 -22 -8 -38 38 -44 38
-111 8 -83 -36 -213 -54 -290 -38 -86 18 -231 125 -278 207 -38 65 -69 181
-64 241 8 100 40 217 68 245 76 77 189 149 261 167 81 21 210 12 280 -19z m3
-52 c250 -120 298 -450 93 -640 -191 -177 -498 -116 -615 122 -25 53 -28 68
-28 163 0 93 3 112 26 161 45 96 116 163 218 206 48 20 69 23 151 20 80 -3
105 -8 155 -32z m-645 -355 l0 -50 -130 0 -130 0 0 45 0 44 123 4 c67 1 125 4
130 5 4 1 7 -20 7 -48z m14 -102 c5 -30 42 -124 63 -158 2 -3 -57 -5 -130 -5
l-134 0 0 30 c0 17 4 36 10 43 15 19 -1 28 -23 14 -11 -7 -28 -12 -37 -13 -11
0 -13 -3 -5 -6 6 -2 12 -20 12 -40 0 -23 -4 -33 -12 -31 -13 4 -25 167 -15
192 3 7 51 11 135 11 l130 0 6 -37z m927 -319 c6 -12 59 -84 118 -159 58 -76
148 -192 199 -259 52 -67 98 -121 104 -121 18 0 -15 -32 -96 -92 l-78 -58 -17
33 c-17 33 -348 463 -399 519 -14 15 -24 29 -21 31 56 47 163 127 169 127 5 0
14 -10 21 -21z m-761 -136 l0 -83 -125 0 -125 0 0 78 c0 43 2 81 4 83 2 2 59
4 125 4 l121 0 0 -82z m260 -137 c0 -217 -1 -226 -19 -226 -20 0 -37 32 -26
50 4 6 -12 11 -42 12 l-48 1 50 7 50 7 -54 1 c-53 2 -53 2 -48 -25 8 -44 -1
-53 -57 -53 l-51 0 2 222 c1 123 2 223 3 223 0 0 54 1 120 3 l120 4 0 -226z
m-685 -78 l0 -123 -130 0 -130 0 3 117 3 117 127 4 c70 1 127 4 127 5 0 1 0
-53 0 -120z m425 -18 l0 -130 -125 0 -125 0 0 130 0 130 125 0 125 0 0 -130z
m-937 -82 c-3 -46 -7 -84 -9 -86 -1 -2 -4 26 -6 61 -2 41 1 63 7 60 6 -2 1 3
-10 12 -17 14 -18 17 -5 25 27 17 29 11 23 -72z m1129 -23 c14 -19 8 -25 -22
-25 -32 0 -33 1 -24 24 7 17 34 18 46 1z m-650 -32 c4 -2 1 -15 -8 -29 -16
-23 -15 -26 12 -65 15 -23 28 -52 27 -65 -1 -13 -1 -37 -2 -54 l-1 -30 -124 0
c-104 0 -125 3 -130 16 -3 9 -6 60 -6 115 0 94 1 100 23 109 21 9 193 11 209
3z m38 -53 c0 -20 -5 -30 -15 -30 -10 0 -15 10 -15 30 0 20 5 30 15 30 10 0
15 -10 15 -30z m800 -50 c23 -6 48 -6 68 0 18 5 42 6 53 2 19 -7 19 -8 -3 -37
-48 -63 -121 -134 -153 -149 -35 -17 -181 -21 -205 -6 -16 10 24 66 63 86 15
8 38 32 52 54 37 59 60 68 125 50z m-1270 -165 c7 -8 20 -15 29 -16 19 0 -7
-12 -51 -23 -26 -6 -28 -4 -28 24 0 23 5 30 19 30 10 0 24 -7 31 -15z m500 0
c7 -8 20 -15 29 -16 9 -1 0 -5 -19 -10 -36 -9 -301 -10 -358 -2 l-32 5 32 18
c46 24 329 28 348 5z m510 -21 c0 -11 -5 -14 -16 -10 -9 3 -97 7 -197 8 l-182
2 190 6 c105 3 193 7 198 8 4 1 7 -5 7 -14z"/>
<path d="M1800 1338 c0 -5 -11 -6 -25 -2 -35 9 -32 -11 4 -29 27 -13 31 -13
55 10 33 30 33 34 -4 31 -16 -1 -30 -6 -30 -10z"/>
<path d="M1998 1563 c-6 -141 -4 -391 3 -403 5 -8 9 84 9 213 0 125 -2 227 -5
227 -3 0 -6 -17 -7 -37z"/>
</g>
</svg>
